<svg width="257" height="282" viewBox="0 0 257 282" fill="none" xmlns="http://www.w3.org/2000/svg">
<path d="M64.4839 114.063V59.4886C64.4839 46.0256 72.9104 34.0025 85.5654 29.4089L117.032 17.9872C124.019 15.4507 131.672 15.4262 138.676 17.918L171.21 29.4925C183.965 34.0303 192.484 46.1034 192.484 59.6414V114.063" stroke="black" stroke-width="32" stroke-linecap="round" stroke-linejoin="round"/>
<path fill-rule="evenodd" clip-rule="evenodd" d="M42.4839 91.6804C19.2879 91.6804 0.483887 110.484 0.483887 133.68V239.68C0.483887 262.876 19.2879 281.68 42.4839 281.68H214.484C237.68 281.68 256.484 262.876 256.484 239.68V133.68C256.484 110.484 237.68 91.6804 214.484 91.6804H42.4839ZM178.243 172.191C183.787 166.802 183.912 157.938 178.522 152.394C173.132 146.851 164.269 146.726 158.725 152.116L117.055 192.628L98.243 174.338C92.6992 168.948 83.8358 169.073 78.446 174.617C73.0562 180.16 73.181 189.024 78.7248 194.414L107.296 222.191C112.73 227.474 121.381 227.474 126.814 222.191L178.243 172.191Z" fill="black"/>
</svg>
