<svg height='24px' width='24px' fill="#000000" xmlns="http://www.w3.org/2000/svg" data-name="Layer 1" viewBox="0 0 100 100" x="0px" y="0px">
    <title>08</title>
    <path d="M73,20.08H67.83v-2a3,3,0,0,0-3-3H60.71a10.83,10.83,0,0,0-21.41,0H35.17a3,3,0,0,0-3,3v2H27a11,11,0,0,0-11,11v52a11,11,0,0,0,11,11H73a11,11,0,0,0,11-11v-52A11,11,0,0,0,73,20.08Zm-34.83,1h4a3,3,0,0,0,3-3V16.75a4.83,4.83,0,0,1,9.67,0v1.34a3,3,0,0,0,3,3h4v6.83H38.17ZM64.93,54.59,47.67,69.89a3,3,0,0,1-2,.75H45.5a3,3,0,0,1-2.07-1l-8.63-9.78a3,3,0,0,1,4.5-4l6.64,7.53L61,50.1a3,3,0,0,1,4,4.49Z"></path>
</svg>
