<svg width="645" height="114" viewBox="0 0 645 114" fill="none" xmlns="http://www.w3.org/2000/svg">
<path d="M73.4401 18.7024H66.8225V16.1424C66.8225 15.1239 66.4179 14.1472 65.6978 13.4271C64.9776 12.7069 64.0009 12.3024 62.9825 12.3024H57.7089C57.2071 9.02799 55.5493 6.04157 53.0357 3.88392C50.5222 1.72627 47.3191 0.540039 44.0065 0.540039C40.6939 0.540039 37.4908 1.72627 34.9773 3.88392C32.4637 6.04157 30.8059 9.02799 30.3041 12.3024H25.0177C23.9993 12.3024 23.0225 12.7069 22.3024 13.4271C21.5823 14.1472 21.1777 15.1239 21.1777 16.1424V18.7024H14.5601C10.8259 18.7024 7.24455 20.1858 4.60404 22.8263C1.96353 25.4668 0.480103 29.0481 0.480103 32.7823V99.3424C0.480103 103.077 1.96353 106.658 4.60404 109.298C7.24455 111.939 10.8259 113.422 14.5601 113.422H73.4401C77.1743 113.422 80.7556 111.939 83.3962 109.298C86.0367 106.658 87.5201 103.077 87.5201 99.3424V32.7823C87.5201 29.0481 86.0367 25.4668 83.3962 22.8263C80.7556 20.1858 77.1743 18.7024 73.4401 18.7024ZM28.8577 19.9824H33.9777C34.9961 19.9824 35.9729 19.5778 36.693 18.8576C37.4131 18.1375 37.8177 17.1608 37.8177 16.1424V14.44C37.8177 12.7986 38.4697 11.2244 39.6304 10.0638C40.791 8.90318 42.3651 8.25115 44.0065 8.25115C45.6479 8.25115 47.222 8.90318 48.3826 10.0638C49.5433 11.2244 50.1953 12.7986 50.1953 14.44V16.1552C50.1953 17.1736 50.5999 18.1503 51.32 18.8704C52.0401 19.5906 53.0169 19.9952 54.0353 19.9952H59.1553V28.7376H28.8577V19.9824ZM63.1105 62.8751L41.0177 82.4592C40.311 83.0824 39.3999 83.4241 38.4577 83.4192H38.2401C37.736 83.3905 37.2425 83.2627 36.7878 83.043C36.3332 82.8234 35.9263 82.5162 35.5905 82.1391L24.5441 69.6208C23.8651 68.8569 23.5174 67.8547 23.5774 66.8345C23.6072 66.3293 23.7361 65.835 23.9568 65.3796C24.1776 64.9243 24.4859 64.5169 24.8641 64.1808C25.2423 63.8446 25.683 63.5862 26.1611 63.4203C26.6392 63.2544 27.1452 63.1844 27.6504 63.2141C28.6706 63.2741 29.6251 63.7369 30.3041 64.5008L38.8033 74.1392L58.0801 57.1279C58.8422 56.449 59.8428 56.1006 60.8618 56.1594C61.8808 56.2182 62.8347 56.6794 63.5137 57.4416C64.1927 58.2037 64.541 59.2043 64.4822 60.2233C64.4234 61.2423 63.9622 62.1962 63.2001 62.8751H63.1105Z" fill="black"/>
<path d="M184.219 28.8437L162.781 79.7187H157.594L179.031 28.8437H184.219Z" fill="black"/>
<path d="M219.406 28.8437L197.969 79.7187H192.781L214.219 28.8437H219.406Z" fill="black"/>
<path d="M291.312 60.7812C291.312 62.7396 290.927 64.4792 290.156 66C289.406 67.5 288.323 68.7708 286.906 69.8125C285.51 70.8542 283.812 71.6458 281.812 72.1875C279.833 72.7292 277.625 73 275.188 73H264.5V32.1562H276.188C285.292 32.1562 289.844 35.4687 289.844 42.0937C289.844 44.3021 289.312 46.1979 288.25 47.7812C287.208 49.3646 285.5 50.5417 283.125 51.3125C284.229 51.5208 285.271 51.875 286.25 52.375C287.25 52.875 288.125 53.5208 288.875 54.3125C289.625 55.1042 290.219 56.0417 290.656 57.125C291.094 58.2083 291.312 59.4271 291.312 60.7812ZM284.062 42.8437C284.062 42.0104 283.938 41.2292 283.688 40.5C283.438 39.75 283 39.1146 282.375 38.5937C281.75 38.0521 280.906 37.625 279.844 37.3125C278.781 37 277.438 36.8437 275.812 36.8437H270.062V49.625H275.625C276.896 49.625 278.042 49.4896 279.062 49.2187C280.104 48.9479 280.99 48.5312 281.719 47.9687C282.469 47.4062 283.042 46.7083 283.438 45.875C283.854 45.0208 284.062 44.0104 284.062 42.8437ZM285.406 60.9687C285.406 59.9271 285.188 58.9896 284.75 58.1562C284.312 57.3229 283.677 56.625 282.844 56.0625C282.01 55.4792 280.99 55.0312 279.781 54.7187C278.594 54.4062 277.25 54.25 275.75 54.25H270.062V68.3125H275.938C279.125 68.3125 281.5 67.7187 283.062 66.5312C284.625 65.3437 285.406 63.4896 285.406 60.9687Z" fill="black"/>
<path d="M310.438 33.3125H301.156V28.8437H315.938V68.4687H325.281V73H300.125V68.4687H310.438V33.3125Z" fill="black"/>
<path d="M362.25 57.0625C362.25 59.5 361.906 61.7396 361.219 63.7812C360.531 65.8021 359.542 67.5417 358.25 69C356.958 70.4375 355.385 71.5625 353.531 72.375C351.677 73.1667 349.573 73.5625 347.219 73.5625C344.969 73.5625 342.948 73.2187 341.156 72.5312C339.385 71.8229 337.875 70.7917 336.625 69.4375C335.396 68.0833 334.448 66.4062 333.781 64.4062C333.135 62.4062 332.812 60.1042 332.812 57.5C332.812 55.0625 333.156 52.8437 333.844 50.8437C334.531 48.8229 335.521 47.0937 336.812 45.6562C338.104 44.1979 339.677 43.0729 341.531 42.2812C343.385 41.4687 345.49 41.0625 347.844 41.0625C350.094 41.0625 352.104 41.4167 353.875 42.125C355.667 42.8125 357.177 43.8333 358.406 45.1875C359.656 46.5208 360.604 48.1875 361.25 50.1875C361.917 52.1875 362.25 54.4792 362.25 57.0625ZM356.688 57.3125C356.688 55.375 356.469 53.6875 356.031 52.25C355.615 50.7917 355.01 49.5833 354.219 48.625C353.427 47.6458 352.458 46.9167 351.312 46.4375C350.188 45.9375 348.927 45.6875 347.531 45.6875C345.906 45.6875 344.51 46.0104 343.344 46.6562C342.198 47.2812 341.25 48.125 340.5 49.1875C339.771 50.25 339.229 51.4896 338.875 52.9062C338.542 54.3021 338.375 55.7708 338.375 57.3125C338.375 59.25 338.583 60.9479 339 62.4062C339.438 63.8646 340.052 65.0833 340.844 66.0625C341.635 67.0208 342.594 67.75 343.719 68.25C344.844 68.7292 346.115 68.9687 347.531 68.9687C349.156 68.9687 350.542 68.6562 351.688 68.0312C352.854 67.3854 353.802 66.5312 354.531 65.4687C355.281 64.4062 355.823 63.1771 356.156 61.7812C356.51 60.3646 356.688 58.875 356.688 57.3125Z" fill="black"/>
<path d="M394.5 71.8437C393.083 72.3854 391.625 72.7812 390.125 73.0312C388.646 73.3021 387.115 73.4375 385.531 73.4375C380.573 73.4375 376.75 72.0937 374.062 69.4062C371.396 66.7187 370.062 62.7917 370.062 57.625C370.062 55.1458 370.448 52.8958 371.219 50.875C371.99 48.8542 373.073 47.125 374.469 45.6875C375.865 44.25 377.531 43.1458 379.469 42.375C381.406 41.5833 383.542 41.1875 385.875 41.1875C387.5 41.1875 389.021 41.3021 390.438 41.5312C391.854 41.7604 393.208 42.1354 394.5 42.6562V47.8437C393.146 47.1354 391.76 46.625 390.344 46.3125C388.948 45.9792 387.5 45.8125 386 45.8125C384.604 45.8125 383.281 46.0833 382.031 46.625C380.802 47.1458 379.719 47.9062 378.781 48.9062C377.844 49.9062 377.104 51.125 376.562 52.5625C376.021 54 375.75 55.625 375.75 57.4375C375.75 61.2292 376.667 64.0729 378.5 65.9687C380.354 67.8437 382.917 68.7812 386.188 68.7812C387.667 68.7812 389.094 68.6146 390.469 68.2812C391.865 67.9479 393.208 67.4479 394.5 66.7812V71.8437Z" fill="black"/>
<path d="M433.531 73H426.062L411.438 56.1875V73H406V28.8437H411.438V55.9687L425.531 41.625H432.719L418 56.0937L433.531 73Z" fill="black"/>
<path d="M467 55.6562C467 56.4271 466.99 57.0729 466.969 57.5937C466.948 58.1146 466.917 58.6042 466.875 59.0625H444.844C444.844 62.2708 445.74 64.7396 447.531 66.4687C449.323 68.1771 451.906 69.0312 455.281 69.0312C456.198 69.0312 457.115 69 458.031 68.9375C458.948 68.8542 459.833 68.75 460.688 68.625C461.542 68.5 462.354 68.3646 463.125 68.2187C463.917 68.0521 464.646 67.875 465.312 67.6875V72.1562C463.833 72.5729 462.156 72.9062 460.281 73.1562C458.427 73.4271 456.5 73.5625 454.5 73.5625C451.812 73.5625 449.5 73.1979 447.562 72.4687C445.625 71.7396 444.031 70.6875 442.781 69.3125C441.552 67.9167 440.635 66.2187 440.031 64.2187C439.448 62.1979 439.156 59.9167 439.156 57.375C439.156 55.1667 439.469 53.0833 440.094 51.125C440.74 49.1458 441.667 47.4167 442.875 45.9375C444.104 44.4375 445.604 43.25 447.375 42.375C449.146 41.5 451.156 41.0625 453.406 41.0625C455.594 41.0625 457.531 41.4062 459.219 42.0937C460.906 42.7812 462.323 43.7604 463.469 45.0312C464.635 46.2812 465.51 47.8125 466.094 49.625C466.698 51.4167 467 53.4271 467 55.6562ZM461.344 54.875C461.406 53.4792 461.271 52.2083 460.938 51.0625C460.604 49.8958 460.083 48.8958 459.375 48.0625C458.688 47.2292 457.823 46.5833 456.781 46.125C455.74 45.6458 454.531 45.4062 453.156 45.4062C451.969 45.4062 450.885 45.6354 449.906 46.0937C448.927 46.5521 448.083 47.1979 447.375 48.0312C446.667 48.8646 446.094 49.8646 445.656 51.0312C445.219 52.1979 444.948 53.4792 444.844 54.875H461.344Z" fill="black"/>
<path d="M474.094 57.9687C474.094 55.3021 474.458 52.9375 475.188 50.875C475.917 48.7917 476.948 47.0417 478.281 45.625C479.635 44.1875 481.25 43.1042 483.125 42.375C485.021 41.625 487.125 41.25 489.438 41.25C490.438 41.25 491.417 41.3125 492.375 41.4375C493.354 41.5625 494.312 41.7604 495.25 42.0312V28.8437H500.719V73H495.844L495.656 67.0625C494.135 69.2708 492.49 70.9062 490.719 71.9687C488.948 73.0312 487.031 73.5625 484.969 73.5625C483.177 73.5625 481.594 73.1875 480.219 72.4375C478.865 71.6875 477.729 70.6354 476.812 69.2812C475.917 67.9062 475.24 66.2604 474.781 64.3437C474.323 62.4271 474.094 60.3021 474.094 57.9687ZM479.656 57.625C479.656 61.4167 480.208 64.25 481.312 66.125C482.438 67.9792 484.021 68.9062 486.062 68.9062C487.438 68.9062 488.885 68.2917 490.406 67.0625C491.948 65.8333 493.562 64.0104 495.25 61.5937V47.0312C494.354 46.6146 493.365 46.3021 492.281 46.0937C491.198 45.8646 490.125 45.75 489.062 45.75C486.104 45.75 483.792 46.7083 482.125 48.625C480.479 50.5417 479.656 53.5417 479.656 57.625Z" fill="black"/>
<path d="M538.375 36.9062H526.281V73H520.656V36.9062H508.562V32.1562H538.375V36.9062Z" fill="black"/>
<path d="M574.531 52.3125C574.531 55.9792 574.094 59.1458 573.219 61.8125C572.365 64.4792 571.198 66.6875 569.719 68.4375C568.26 70.1667 566.542 71.4583 564.562 72.3125C562.604 73.1458 560.531 73.5625 558.344 73.5625C555.719 73.5625 553.427 73.0937 551.469 72.1562C549.531 71.1979 547.917 69.8229 546.625 68.0312C545.354 66.2396 544.406 64.0625 543.781 61.5C543.156 58.9167 542.844 56.0104 542.844 52.7812C542.844 49.1562 543.271 46.0104 544.125 43.3437C544.979 40.6771 546.135 38.4792 547.594 36.75C549.073 35 550.792 33.7083 552.75 32.875C554.708 32.0208 556.781 31.5937 558.969 31.5937C561.594 31.5937 563.875 32.0729 565.812 33.0312C567.771 33.9896 569.396 35.3646 570.688 37.1562C571.979 38.9271 572.938 41.0937 573.562 43.6562C574.208 46.2187 574.531 49.1042 574.531 52.3125ZM568.75 52.7187C568.75 50.3229 568.562 48.1354 568.188 46.1562C567.833 44.1562 567.25 42.4375 566.438 41C565.625 39.5625 564.573 38.4479 563.281 37.6562C562.01 36.8646 560.469 36.4687 558.656 36.4687C556.906 36.4687 555.396 36.8958 554.125 37.75C552.875 38.5833 551.844 39.7292 551.031 41.1875C550.219 42.625 549.615 44.3229 549.219 46.2812C548.823 48.2187 548.625 50.2812 548.625 52.4687C548.625 54.8854 548.812 57.0937 549.188 59.0937C549.562 61.0729 550.146 62.7812 550.938 64.2187C551.75 65.6354 552.792 66.7396 554.062 67.5312C555.333 68.3229 556.865 68.7187 558.656 68.7187C560.406 68.7187 561.917 68.3021 563.188 67.4687C564.458 66.6146 565.5 65.4687 566.312 64.0312C567.146 62.5729 567.76 60.875 568.156 58.9375C568.552 57 568.75 54.9271 568.75 52.7187Z" fill="black"/>
<path d="M609.156 52.125C609.156 54.0833 609 55.9583 608.688 57.75C608.396 59.5417 607.917 61.2083 607.25 62.75C606.583 64.2917 605.719 65.6979 604.656 66.9687C603.594 68.2187 602.292 69.2917 600.75 70.1875C599.208 71.0833 597.417 71.7812 595.375 72.2812C593.333 72.7604 591.01 73 588.406 73H579.656V32.1562H590.188C596.562 32.1562 601.312 33.8021 604.438 37.0937C607.583 40.3646 609.156 45.375 609.156 52.125ZM603.312 52.5312C603.312 49.6354 603.042 47.1875 602.5 45.1875C601.958 43.1875 601.135 41.5729 600.031 40.3437C598.927 39.1146 597.542 38.2292 595.875 37.6875C594.208 37.125 592.25 36.8437 590 36.8437H585.219V68.1875H589.375C598.667 68.1875 603.312 62.9687 603.312 52.5312Z" fill="black"/>
<path d="M644.906 52.3125C644.906 55.9792 644.469 59.1458 643.594 61.8125C642.74 64.4792 641.573 66.6875 640.094 68.4375C638.635 70.1667 636.917 71.4583 634.938 72.3125C632.979 73.1458 630.906 73.5625 628.719 73.5625C626.094 73.5625 623.802 73.0937 621.844 72.1562C619.906 71.1979 618.292 69.8229 617 68.0312C615.729 66.2396 614.781 64.0625 614.156 61.5C613.531 58.9167 613.219 56.0104 613.219 52.7812C613.219 49.1562 613.646 46.0104 614.5 43.3437C615.354 40.6771 616.51 38.4792 617.969 36.75C619.448 35 621.167 33.7083 623.125 32.875C625.083 32.0208 627.156 31.5937 629.344 31.5937C631.969 31.5937 634.25 32.0729 636.188 33.0312C638.146 33.9896 639.771 35.3646 641.062 37.1562C642.354 38.9271 643.312 41.0937 643.938 43.6562C644.583 46.2187 644.906 49.1042 644.906 52.3125ZM639.125 52.7187C639.125 50.3229 638.938 48.1354 638.562 46.1562C638.208 44.1562 637.625 42.4375 636.812 41C636 39.5625 634.948 38.4479 633.656 37.6562C632.385 36.8646 630.844 36.4687 629.031 36.4687C627.281 36.4687 625.771 36.8958 624.5 37.75C623.25 38.5833 622.219 39.7292 621.406 41.1875C620.594 42.625 619.99 44.3229 619.594 46.2812C619.198 48.2187 619 50.2812 619 52.4687C619 54.8854 619.188 57.0937 619.562 59.0937C619.938 61.0729 620.521 62.7812 621.312 64.2187C622.125 65.6354 623.167 66.7396 624.438 67.5312C625.708 68.3229 627.24 68.7187 629.031 68.7187C630.781 68.7187 632.292 68.3021 633.562 67.4687C634.833 66.6146 635.875 65.4687 636.688 64.0312C637.521 62.5729 638.135 60.875 638.531 58.9375C638.927 57 639.125 54.9271 639.125 52.7187Z" fill="black"/>
</svg>
